<svg data-v-423bf9ae="" xmlns="http://www.w3.org/2000/svg" viewBox="0 0 535 90" class="iconLeft"><!----><!----><!----><g data-v-423bf9ae="" id="4c78b51b-86a7-4612-9e13-edff040f2317" fill="white" transform="matrix(4.238036296544038,0,0,4.238036296544038,137.07575570035303,12.23468057899884)"><path d="M2.53 2.45L5.31 2.45C7.66 2.45 7.67 5.92 5.31 5.92L2.53 5.92ZM5.31 0.69C3.77 0.69 2.23 0.70 0.69 0.70L0.69 10.50L2.53 10.50L2.53 7.62L5.31 7.62C10.11 7.62 10.09 0.69 5.31 0.69ZM9.73 3.60L9.73 10.50L11.44 10.50L11.44 6.86C11.44 5.59 12.26 5.11 13.16 5.11C13.72 5.11 14.04 5.26 14.39 5.56L15.16 4.07C14.78 3.70 14.10 3.42 13.38 3.42C12.68 3.42 11.97 3.54 11.44 4.40L11.31 3.60ZM19.05 3.46C16.86 3.46 15.48 5.08 15.48 7.06C15.48 9.04 16.83 10.65 19.07 10.65C21.31 10.65 22.67 9.04 22.67 7.06C22.67 5.08 21.25 3.46 19.05 3.46ZM19.07 5.01C20.22 5.01 20.94 6.02 20.94 7.06C20.94 8.11 20.31 9.09 19.07 9.09C17.82 9.09 17.19 8.11 17.19 7.06C17.19 6.02 17.84 5.01 19.07 5.01ZM28.57 3.77C28.10 3.44 27.54 3.37 26.99 3.37C25.06 3.37 23.49 4.72 23.49 6.87C23.49 9.03 24.84 10.35 26.99 10.35C27.85 10.35 28.74 10.78 28.74 11.73C28.74 12.68 27.97 13.22 26.99 13.22C26.01 13.22 25.19 12.63 25.19 11.73L23.49 11.73C23.49 13.59 24.99 14.81 26.99 14.81C28.99 14.81 30.45 13.64 30.45 11.73C30.45 10.85 30.17 10.02 29.02 9.45C30.16 8.93 30.48 7.73 30.48 6.87C30.48 6.12 30.28 5.43 29.75 4.83L30.52 3.85L29.26 2.90ZM26.99 4.93C27.97 4.93 28.78 5.68 28.78 6.87C28.78 8.06 27.97 8.79 26.99 8.79C26.00 8.79 25.19 8.08 25.19 6.87C25.19 5.67 26.00 4.93 26.99 4.93ZM31.57 3.60L31.57 10.50L33.28 10.50L33.28 6.86C33.28 5.59 34.10 5.11 35 5.11C35.56 5.11 35.88 5.26 36.23 5.56L37.00 4.07C36.62 3.70 35.94 3.42 35.22 3.42C34.52 3.42 33.81 3.54 33.28 4.40L33.15 3.60ZM43.06 4.55C42.67 3.86 41.79 3.43 40.87 3.43C38.85 3.42 37.27 4.66 37.27 7.04C37.27 9.46 38.78 10.72 40.82 10.71C41.59 10.70 42.67 10.30 43.06 9.49L43.15 10.50L44.76 10.50L44.76 3.60L43.12 3.60ZM41.02 4.96C43.71 4.96 43.71 9.14 41.02 9.14C39.89 9.14 38.98 8.36 38.98 7.04C38.98 5.73 39.89 4.96 41.02 4.96ZM52.50 10.50L52.50 6.80C52.50 5.89 53.07 5.10 54.00 5.10C54.92 5.10 55.30 5.87 55.30 6.78L55.30 10.50L57.01 10.50L57.01 6.78C57.01 4.70 56.04 3.50 54.08 3.50C53.19 3.50 52.39 3.78 51.77 4.76C51.38 3.81 50.55 3.47 49.73 3.47C49.07 3.47 48.27 3.72 47.91 4.42L47.78 3.58L46.20 3.58L46.20 10.50L47.91 10.50L47.91 6.80C47.91 5.89 48.45 5.07 49.38 5.07C50.32 5.07 50.79 5.89 50.79 6.80L50.79 10.50ZM65.04 10.50L65.04 6.80C65.04 5.89 65.62 5.10 66.54 5.10C67.47 5.10 67.84 5.87 67.84 6.78L67.84 10.50L69.55 10.50L69.55 6.78C69.55 4.70 68.59 3.50 66.63 3.50C65.73 3.50 64.93 3.78 64.32 4.76C63.92 3.81 63.10 3.47 62.27 3.47C61.61 3.47 60.82 3.72 60.45 4.42L60.33 3.58L58.74 3.58L58.74 10.50L60.45 10.50L60.45 6.80C60.45 5.89 61.00 5.07 61.92 5.07C62.86 5.07 63.34 5.89 63.34 6.80L63.34 10.50ZM73.00 3.57L73.00 10.50L71.29 10.50L71.29 3.57ZM71.13 1.65C71.13 2.98 73.15 2.98 73.15 1.65C73.15 0.32 71.13 0.32 71.13 1.65ZM74.58 3.60L74.58 7.22C74.58 9.37 75.78 10.61 77.43 10.61C78.40 10.61 79.06 10.28 79.77 9.58L79.88 10.51L81.41 10.51L81.41 3.60L79.72 3.60L79.72 7.13C79.72 8.18 79.00 9.06 77.95 9.06C76.86 9.06 76.29 8.26 76.29 7.21L76.29 3.60ZM89.22 10.50L89.22 6.80C89.22 5.89 89.80 5.10 90.72 5.10C91.64 5.10 92.02 5.87 92.02 6.78L92.02 10.50L93.73 10.50L93.73 6.78C93.73 4.70 92.76 3.50 90.80 3.50C89.91 3.50 89.11 3.78 88.49 4.76C88.10 3.81 87.28 3.47 86.45 3.47C85.79 3.47 84.99 3.72 84.63 4.42L84.50 3.58L82.92 3.58L82.92 10.50L84.63 10.50L84.63 6.80C84.63 5.89 85.18 5.07 86.10 5.07C87.04 5.07 87.51 5.89 87.51 6.80L87.51 10.50Z"></path></g><!----><g data-v-423bf9ae="" id="2210e7f8-13b9-4674-98b1-10e9fbd68a79" transform="matrix(7.5,0,0,7.5,0,-15)" stroke="none" fill="white"><path d="M7.969 2L6 13.844 5.969 14h2.063l1.969-11.844.031-.156H7.969zM5 3.813l-.531.344-4 2.5L0 6.938v2.126l.469.281 4 2.5.531.344V9.814L2.094 8.001 5 6.188V3.813zm6 0v2.375l2.906 1.813L11 9.814v2.375l.531-.344 4-2.5.469-.281V6.938l-.469-.281-4-2.5L11 3.813z"></path></g><!----></svg>